<svg width="100" height="100" viewBox="0 0 100 100" fill="none" xmlns="http://www.w3.org/2000/svg">
<g clip-path="url(#clip0_1_9)">
<circle cx="50" cy="50" r="49" fill="white" stroke="#343F64" stroke-width="2"/>
<path d="M23.56 56.504C25.5867 56.504 27.2187 55.8213 28.456 54.456L30.12 56.44C29.3733 57.336 28.424 58.0187 27.272 58.488C26.1413 58.9573 24.872 59.192 23.464 59.192C21.672 59.192 20.0827 58.8293 18.696 58.104C17.3093 57.3573 16.232 56.3227 15.464 55C14.7173 53.6773 14.344 52.184 14.344 50.52C14.344 48.8773 14.7067 47.3947 15.432 46.072C16.1787 44.7493 17.192 43.7253 18.472 43C19.7733 42.2533 21.2347 41.88 22.856 41.88C24.392 41.88 25.7893 42.232 27.048 42.936C28.3067 43.6187 29.3093 44.5893 30.056 45.848C30.8027 47.1067 31.1867 48.5573 31.208 50.2L17.736 52.824C18.1627 53.9973 18.8773 54.904 19.88 55.544C20.904 56.184 22.1307 56.504 23.56 56.504ZM22.856 44.472C21.7893 44.472 20.8293 44.7173 19.976 45.208C19.144 45.6987 18.4933 46.392 18.024 47.288C17.5547 48.1627 17.32 49.1867 17.32 50.36V50.68L28.168 48.632C27.8907 47.3947 27.272 46.392 26.312 45.624C25.352 44.856 24.2 44.472 22.856 44.472Z" fill="#2DBDAA"/>
<path d="M40.1988 36.6V59H37.0308V39.384H31.9748V36.6H40.1988ZM61.4185 36.6V38.776L52.3625 59H48.9705L57.8345 39.384H47.5945V43.384H44.5225V36.6H61.4185ZM72.5495 46.008C74.7468 46.2213 76.4215 46.904 77.5735 48.056C78.7255 49.1867 79.3015 50.6373 79.3015 52.408C79.3015 53.688 78.9815 54.8507 78.3415 55.896C77.7015 56.92 76.7415 57.7413 75.4615 58.36C74.2028 58.9573 72.6562 59.256 70.8215 59.256C69.2215 59.256 67.6855 59.0213 66.2135 58.552C64.7415 58.0613 63.5362 57.3893 62.5975 56.536L64.0695 54.008C64.8375 54.7333 65.8188 55.32 67.0135 55.768C68.2082 56.1947 69.4775 56.408 70.8215 56.408C72.4855 56.408 73.7762 56.056 74.6935 55.352C75.6322 54.648 76.1015 53.6773 76.1015 52.44C76.1015 51.2027 75.6428 50.2427 74.7255 49.56C73.8082 48.8773 72.4215 48.536 70.5655 48.536H68.7735V46.296L74.4055 39.384H63.6215V36.6H78.4055V38.776L72.5495 46.008Z" fill="#343F64"/>
</g>
<defs>
<clipPath id="clip0_1_9">
<rect width="100" height="100" fill="white"/>
</clipPath>
</defs>
</svg>
