<svg width="100" height="100" viewBox="0 0 100 100" fill="none" xmlns="http://www.w3.org/2000/svg">
<g clip-path="url(#clip0_1_9)">
<circle cx="50" cy="50" r="49.5" fill="white" stroke="#343F64"/>
<line x1="19" y1="31" x2="19" y2="73" stroke="#343F64" stroke-width="2"/>
<line x1="18" y1="72" x2="43" y2="72" stroke="#343F64" stroke-width="2"/>
<circle cx="19" cy="30" r="3" fill="#343F64"/>
<circle cx="19" cy="30" r="2" fill="white"/>
<circle cx="44" cy="72" r="3" fill="#343F64"/>
<circle cx="44" cy="72" r="2" fill="white"/>
<path d="M34.888 38.6V61H29.704V42.76H25.224V38.6H34.888ZM56.3153 38.6V41.96L47.9953 61H42.3633L50.3953 42.824H42.9713V46.472H38.3633V38.6H56.3153ZM68.8683 47.72C70.8309 48.04 72.3349 48.776 73.3803 49.928C74.4256 51.0587 74.9483 52.4667 74.9483 54.152C74.9483 55.4533 74.6069 56.6587 73.9243 57.768C73.2416 58.856 72.1963 59.7307 70.7883 60.392C69.4016 61.0533 67.6949 61.384 65.6683 61.384C64.0896 61.384 62.5323 61.1813 60.9963 60.776C59.4816 60.3493 58.1909 59.752 57.1242 58.984L59.1403 55.016C59.9936 55.656 60.9749 56.1573 62.0843 56.52C63.2149 56.8613 64.3669 57.032 65.5403 57.032C66.8416 57.032 67.8656 56.7867 68.6123 56.296C69.3589 55.784 69.7323 55.0693 69.7323 54.152C69.7323 52.3173 68.3349 51.4 65.5403 51.4H63.1723V47.976L67.7803 42.76H58.2443V38.6H73.9243V41.96L68.8683 47.72Z" fill="#343F64"/>
</g>
<defs>
<clipPath id="clip0_1_9">
<rect width="100" height="100" fill="white"/>
</clipPath>
</defs>
</svg>
